<?xml version="1.0" encoding="utf-8"?>
<!-- Generator: Adobe Illustrator 18.1.1, SVG Export Plug-In . SVG Version: 6.00 Build 0)  -->
<svg version="1.1" id="oefe" xmlns="http://www.w3.org/2000/svg" xmlns:xlink="http://www.w3.org/1999/xlink" x="0px" y="0px"
	 width="561.6px" height="600px" viewBox="126.3 0 561.6 600" enable-background="new 126.3 0 561.6 600" xml:space="preserve">
<g>
	<line fill="#F3573F" x1="659.2" y1="359.1" x2="676.4" y2="221.7"/>
	<g>
		<path fill="#F3573F" d="M589.3,65.2l-72.4-24.7L403.9,2V1.6l-0.5,0.1l-0.5-0.1V2l-99.1,35.3l-46,16.4l-131.6,46.9l20.4,176.7
			l22,190.7l125.2,69.5l109.1,60.4v0.6l0.5-0.3l0.5,0.3v-0.6l110.3-61.1l127.6-70.6l17.2-136.6l11.9-94l17.2-136.7L589.3,65.2z
			 M534.5,454.6L492,356l-90.8-0.1l-0.2,0.1h-82.7l-38.9,97.2l-72.3,1.3L400.9,23.3l202.8,432.6L534.5,454.6z"/>
		<polygon fill="#F3573F" points="400.9,298.4 404.1,298.6 466.9,298.6 401.4,161.6 343.7,298.4 		"/>
	</g>
</g>
</svg>
